<svg id="Ebene_1" data-name="Ebene 1" xmlns="http://www.w3.org/2000/svg" viewBox="0 0 100 100"><defs><style>.cls-1,.cls-3{fill:#fff;}.cls-2{fill:#d7b71f;}.cls-3{stroke:#000;stroke-miterlimit:10;stroke-width:2px;}</style></defs><title>drinks5</title><path class="cls-1" d="M67.42,39.43H65.16a7.41,7.41,0,0,0-1.36.13V34.46a4.36,4.36,0,0,0-.08-.81A6,6,0,0,0,59,22.93,6.25,6.25,0,0,0,54.22,21a6.24,6.24,0,0,0-9.56-.9,6.2,6.2,0,0,0-.95-.3l-.41-.08a6.64,6.64,0,0,0-.94-.08,8.33,8.33,0,0,0-1.36,0h-.12a6.85,6.85,0,0,0-5.78,4,5.63,5.63,0,0,0-2.16,10.17,4.33,4.33,0,0,0-.06.63V64.93A4.07,4.07,0,0,0,36.95,69H59.74a4.07,4.07,0,0,0,4.06-4.06V58.71a7.41,7.41,0,0,0,1.36.13h2.25a7.46,7.46,0,0,0,7.45-7.45V46.88A7.46,7.46,0,0,0,67.42,39.43Zm4.74,12.31a4,4,0,0,1-4,4H65.42a4,4,0,0,1-1.62-.34V42.66a4,4,0,0,1,1.62-.34h2.69a4,4,0,0,1,4,4Z"/><path d="M67.42,39.43H65.16a7.41,7.41,0,0,0-1.36.13V34.46a4.36,4.36,0,0,0-.08-.81A6,6,0,0,0,59,22.93,6.25,6.25,0,0,0,54.22,21a6.24,6.24,0,0,0-9.56-.9,6.2,6.2,0,0,0-.95-.3l-.41-.08a6.64,6.64,0,0,0-.94-.08,8.33,8.33,0,0,0-1.36,0h-.12a6.85,6.85,0,0,0-5.78,4,5.63,5.63,0,0,0-2.16,10.17,4.33,4.33,0,0,0-.06.63V64.93A4.07,4.07,0,0,0,36.95,69H59.74a4.07,4.07,0,0,0,4.06-4.06V58.71a7.41,7.41,0,0,0,1.36.13h2.25a7.46,7.46,0,0,0,7.45-7.45V46.88A7.46,7.46,0,0,0,67.42,39.43Zm-6.32,25.5a1.35,1.35,0,0,1-1.35,1.35H36.95a1.35,1.35,0,0,1-1.35-1.35V34.46a1.35,1.35,0,0,1,1.35-1.35H59.74a1.35,1.35,0,0,1,1.35,1.35Zm1.21-33.6h0a4,4,0,0,0-2.56-.93H36.95a4,4,0,0,0-2.68,1,2.91,2.91,0,0,1-1-2.22,2.94,2.94,0,0,1,2.92-2.93h1.11l.22-1.09a4,4,0,0,1,3.59-2.85h1.49a3.54,3.54,0,0,1,1.71.58l1.12.74.75-1.11A3.55,3.55,0,0,1,49.08,21a3.52,3.52,0,0,1,3.2,2l.46,1,1-.21a3.58,3.58,0,0,1,3.66,1.48l.59.87,1-.36a3.29,3.29,0,0,1,3.28,5.59Zm9.85,20.4a4,4,0,0,1-4,4H65.42a4,4,0,0,1-1.62-.34V42.66a4,4,0,0,1,1.62-.34h2.69a4,4,0,0,1,4,4Z"/><rect class="cls-2" x="36.95" y="38.07" width="22.8" height="26.86"/><circle class="cls-1" cx="50" cy="51.5" r="1.53" transform="translate(-4.48 98.24) rotate(-86.48)"/><circle class="cls-1" cx="50" cy="60.26" r="1.53" transform="translate(-20.59 94.14) rotate(-75.96)"/><circle class="cls-1" cx="43.1" cy="61.64" r="0.76" transform="translate(-21.07 100.87) rotate(-86.48)"/><circle class="cls-1" cx="56.18" cy="53.23" r="0.76" transform="translate(-0.4 106.03) rotate(-86.48)"/><circle class="cls-1" cx="56.18" cy="43.63" r="0.38" transform="translate(-5.89 8.9) rotate(-8.6)"/><circle class="cls-1" cx="44.1" cy="45.46" r="0.38" transform="translate(-6.3 7.11) rotate(-8.6)"/><circle class="cls-1" cx="40.88" cy="41.62" r="0.38" transform="translate(-5.77 6.58) rotate(-8.6)"/><circle class="cls-1" cx="41.26" cy="55.71" r="0.38" transform="translate(-7.87 6.8) rotate(-8.6)"/><rect class="cls-3" x="28.97" y="63.41" width="42.86" height="19.8" transform="translate(-10.4 8.36) rotate(-8.6)"/><path d="M34.81,69l.41,2.63a7.52,7.52,0,0,1,.08,2A4.06,4.06,0,0,1,38,71.83a2.69,2.69,0,0,1,2.48.64,5.89,5.89,0,0,1,1.22,3.19,5.36,5.36,0,0,1-.37,3.41,3.82,3.82,0,0,1-3,1.63,17.4,17.4,0,0,1-2.28.18,7.85,7.85,0,0,1-2-.17L32.31,69.4Zm.9,5.92.62,4a6.75,6.75,0,0,0,1.7-.11,1.4,1.4,0,0,0,1.11-.76,4,4,0,0,0,0-2,4.1,4.1,0,0,0-.57-1.81A1.29,1.29,0,0,0,37.34,74,3.46,3.46,0,0,0,35.71,74.93Z"/><path d="M48.84,75.48l-3,.46a1.73,1.73,0,0,0,.73,1.13,2.5,2.5,0,0,0,1.47.09,30.49,30.49,0,0,0,3.06-.66L51.59,78a8.6,8.6,0,0,1-3.51,1.18,4.59,4.59,0,0,1-3.48-.49,4.68,4.68,0,0,1-1.5-3.17A4.83,4.83,0,0,1,43.53,72a4.52,4.52,0,0,1,3.1-1.47,5,5,0,0,1,3.1.25,2.65,2.65,0,0,1,1.28,2,2.35,2.35,0,0,1-.33,1.83A2.72,2.72,0,0,1,48.84,75.48Zm-3.27-1,2.35-.36a.73.73,0,0,0,.58-.31,1.09,1.09,0,0,0,.06-.66,1,1,0,0,0-.43-.77A2,2,0,0,0,47,72.29a1.79,1.79,0,0,0-1.25.58A2.51,2.51,0,0,0,45.58,74.45Z"/><path d="M58.24,74l-3,.46A1.73,1.73,0,0,0,56,75.62a2.5,2.5,0,0,0,1.47.09A30.49,30.49,0,0,0,60.51,75L61,76.55a8.6,8.6,0,0,1-3.51,1.18A4.59,4.59,0,0,1,54,77.24a4.68,4.68,0,0,1-1.5-3.17,4.83,4.83,0,0,1,.44-3.55A4.52,4.52,0,0,1,56,69a5,5,0,0,1,3.1.25,2.65,2.65,0,0,1,1.28,2,2.35,2.35,0,0,1-.33,1.83A2.72,2.72,0,0,1,58.24,74ZM55,73l2.35-.36a.73.73,0,0,0,.58-.31,1.09,1.09,0,0,0,.06-.66,1,1,0,0,0-.43-.77,2,2,0,0,0-1.14-.06,1.79,1.79,0,0,0-1.25.58A2.51,2.51,0,0,0,55,73Z"/><path d="M67.49,67.27l.1,2.34-.67.1a9.16,9.16,0,0,0-2.44,1l.87,5.64-2.48.38-1.28-8.27,1.93-.3.41,1.17a5.28,5.28,0,0,1,3.13-2Z"/></svg>