<svg id="Ebene_1" data-name="Ebene 1" xmlns="http://www.w3.org/2000/svg" viewBox="0 0 100 100"><defs><style>.cls-1,.cls-4{fill:#fff;}.cls-2{fill:#95001f;}.cls-3{fill:none;}.cls-3,.cls-4{stroke:#000;stroke-miterlimit:10;stroke-width:2px;}</style></defs><title>drinks2</title><polygon class="cls-1" points="29.05 23.64 36.6 70.95 61.03 70.95 68.64 23.64 29.05 23.64"/><polygon class="cls-1" points="29.05 23.64 36.6 70.95 61.03 70.95 68.64 23.64 29.05 23.64"/><path class="cls-2" d="M33.76,49.91s.42,4.66,5.46,2.21,5.06-.54,10.25,2.33c2.46,1.36,14.94-4.55,14.94-4.55l-.67,4.16L61,71H36.6Z"/><polygon class="cls-3" points="29.05 23.64 36.6 70.95 61.03 70.95 68.64 23.64 29.05 23.64"/><line class="cls-3" x1="33.07" y1="7.44" x2="41.09" y2="61.1"/><path d="M33.76,37.06V35.38c.36-.64.72-1.29,1.1-1.92a13.66,13.66,0,0,0,.76-1.14,5.35,5.35,0,0,1,1.91-2.45c1-.61,2-1.19,3-1.78a2,2,0,0,1,.39-.16c.74-.24,1.47-.51,2.22-.71.51-.13,1.07-.09,1.57-.26a4.72,4.72,0,0,1,2.69-.13,1.13,1.13,0,0,0,.6,0,5.88,5.88,0,0,1,6,1.17,1.38,1.38,0,0,0,.67.31A3.89,3.89,0,0,1,57.35,30a2.1,2.1,0,0,0,.73.59,3.74,3.74,0,0,1,2,2,1.3,1.3,0,0,0,.35.58,3.51,3.51,0,0,1,1.45,2.22v4.49c-.33.55-.66,1.1-1,1.66a.62.62,0,0,0,0,.38,3.8,3.8,0,0,1-1.46,3.78,9.83,9.83,0,0,1-5,2.61c.21.55.4,1,.57,1.51a1,1,0,0,1-.49,1.44,10.22,10.22,0,0,1-2.33.84,2.2,2.2,0,0,1-2.35-1.14,5,5,0,0,0-1.78-1.51,4.88,4.88,0,0,1-2.41-2.52A10,10,0,0,1,45,45.32c-.16-.74-.45-1.26-1.29-1.4a8.41,8.41,0,0,1-1.15-.5,7.74,7.74,0,0,0-1.31-.29c-.82-.12-1.65-.19-2.48-.31a11.12,11.12,0,0,0-1.14-.23,3.47,3.47,0,0,1-3.72-3.75c0-.26,0-.52,0-.77S33.82,37.4,33.76,37.06Zm15-5.12c-.41,1.45-1.08,2.17-2.1,2.2a.92.92,0,0,1-.74-.41c-.14-.37.16-.55.55-.61a1.22,1.22,0,0,0,1-1.63c-.18-.89-.28-1.8-.47-2.69a.79.79,0,0,0-.46-.53,3,3,0,0,0-1,0,15.92,15.92,0,0,0-1.67.31,6.4,6.4,0,0,0-1,.43,9.72,9.72,0,0,1,.46.86c.24.61.4,1.27,1.31,1.11.1,0,.38.32.37.48a.65.65,0,0,1-.4.47,1.63,1.63,0,0,1-1,0,1.1,1.1,0,0,0-1.2.15c-.32.23-.74.33-1-.11s.07-.62.42-.81c.69-.38.68-.56.06-1.52-.41-.63-.75-.17-1.1,0a10.38,10.38,0,0,1-1.41.85,4,4,0,0,0-2.37,2.24c-.38.91-.32,1.11.59,1.41,1.13.38,1.61.07,1.69-1.09,0,0,0-.11,0-.14l.58-.57a2.32,2.32,0,0,1,.48.58,2.36,2.36,0,0,1,0,.77,3.08,3.08,0,0,1,2.95.79c.27.28.48.62.11.89a.86.86,0,0,1-.82-.11,1.93,1.93,0,0,0-2.14-.43c-1.6.62-3.12.79-4.52-.45a2.2,2.2,0,0,0-.73,2.07A10.92,10.92,0,0,1,37,37c.21.1.27.49.4.75a3.37,3.37,0,0,1-.84.17,5,5,0,0,1-1-.23c-.51,2.66.67,3.54,2.6,3.3a1.16,1.16,0,0,1,.73.14,3.8,3.8,0,0,0,2.61.37c.38-1.29.67-1.67,1.53-1.86.21,0,.48.14.72.22a3.6,3.6,0,0,1-.32.74c-.1.13-.36.14-.48.26-.29.28-.48.64,0,.94a5.23,5.23,0,0,0,3.84.94c0-.35,0-.65,0-1a2.15,2.15,0,0,1,1.11-2c.19-.12.53,0,.8,0a3.81,3.81,0,0,1-.14.8c-.06.16-.28.24-.4.38-.39.43-.39,1.76,0,2a2.13,2.13,0,0,0,2.74-.33,11.21,11.21,0,0,1-.11-1.81c0-.21.41-.38.63-.57a3.92,3.92,0,0,1,.4.76A7.59,7.59,0,0,1,52,42.19c.37-.17.65-.21.78-.37a1.88,1.88,0,0,1,2.72-.52c.49.28.7,0,.67-.62a2.71,2.71,0,0,1,.14-1.28c.13-.27.65-.59.88-.52.54.16.33.56.1.95s0,1.12.35,1.1c.86,0,1.8,0,2.36-.81a2.68,2.68,0,0,0,.11-2.35c-.84-.15-1.58-.23-2.29-.43-.18,0-.26-.46-.38-.7a2.65,2.65,0,0,1,.77-.26c.29,0,.59.2.88.18s1-.12,1-.3a2.94,2.94,0,0,0-.14-1.39c0-.19-.36-.29-.5-.47a3.9,3.9,0,0,1-.76-1.09,1.86,1.86,0,0,0-1.61-1.42,1.29,1.29,0,0,0,.1,1.64c.21.33.31.67-.09.91s-.65,0-.84-.36l-.36-.6a1.52,1.52,0,0,1-1.8,0,.68.68,0,0,1-.2-.6.67.67,0,0,1,.52-.34c1,0,1.18-.05,1.6-1,.08-.18.13-.51,0-.61a6.73,6.73,0,0,0-1.2-.92c-.29-.17-.51,0-.73.27a10.85,10.85,0,0,1-1.39,1.53.55.55,0,0,1-.91-.06c-.24-.38,0-.6.34-.85a14.26,14.26,0,0,0,1.2-1.19,4.09,4.09,0,0,0-4.64-1.41c-.18.07-.48.23-.47.33a7.26,7.26,0,0,0,.23,1.86c.07.23.58.29.84.49s.45.41.43.59-.36.33-.57.45S48.93,32,48.78,31.94ZM46.3,44.4a15.28,15.28,0,0,0,.89,2.29,3.21,3.21,0,0,0,1.28,1.21,7.08,7.08,0,0,1,2.66,2.22,1.1,1.1,0,0,0,.71.41c1.29.09,1.6-.34,1-1.49-.34-.71-.83-1.34-1.14-2.06s-.56-1.64-.85-2.53a3.75,3.75,0,0,1-3.53,0A3.28,3.28,0,0,0,46.3,44.4Zm13.11-2.13c-1.11.19-2,.38-2.92.49a12.56,12.56,0,0,1-1.77,0c-.16,0-.32-.13-.46-.09a2.13,2.13,0,0,0-1.4,3,1.39,1.39,0,0,0,1.77,1,8.35,8.35,0,0,0,4.48-3C59.33,43.33,59.29,42.84,59.41,42.27Z"/><path d="M40.43,38.76a2.72,2.72,0,0,0,3.37-1,.66.66,0,0,0-.06-.62.75.75,0,0,0-.67-.07c-.35.18-.62.49-1,.7-.73.46-.95.36-1.32-.43-.11-.23-.39-.37-.59-.55-.17.21-.48.41-.49.64a1.32,1.32,0,0,1-.86,1.15,3.69,3.69,0,0,0-1.05.88.71.71,0,0,0,.07.66.62.62,0,0,0,.6.06C39.13,39.73,39.75,39.25,40.43,38.76Zm9.36-1.52a4.49,4.49,0,0,0,1.12.3c.26,0,.52-.23.78-.36-.16-.22-.29-.59-.49-.63a1.6,1.6,0,0,1-1.52-1.81c0-.17-.34-.48-.52-.48a.71.71,0,0,0-.49.5,6.27,6.27,0,0,0,.18,1.37A.92.92,0,0,1,48,37.3c-.26,0-.48.29-.72.44.23.2.45.55.71.59C48.81,38.46,49.34,37.92,49.79,37.25Zm5.28.36a2.22,2.22,0,0,0-1.36-2.51c-.33-.2-.72-.3-.89.11a.89.89,0,0,0,.31.77c1.2.89,1.22,1.24.06,2.14-.07.06-.19.1-.22.17-.1.27-.16.55-.24.83.27,0,.65.17.8,0a1.6,1.6,0,0,1,1.88-.37s.11,0,.14,0l.64-.42a2.74,2.74,0,0,0-.45-.6A1.93,1.93,0,0,0,55.07,37.61Z"/><path d="M40.43,38.76c-.68.49-1.3,1-2,1.39a.62.62,0,0,1-.6-.06.71.71,0,0,1-.07-.66,3.69,3.69,0,0,1,1.05-.88,1.32,1.32,0,0,0,.86-1.15c0-.22.32-.43.49-.64.2.18.49.33.59.55.37.79.59.89,1.32.43.33-.21.6-.53,1-.7a.75.75,0,0,1,.67.07.66.66,0,0,1,.06.62A2.72,2.72,0,0,1,40.43,38.76Z"/><path d="M49.79,37.25c-.45.67-1,1.22-1.83,1.08-.26,0-.47-.38-.71-.59.24-.15.47-.41.72-.44a.92.92,0,0,0,.86-1.16,6.27,6.27,0,0,1-.18-1.37.71.71,0,0,1,.49-.5c.18,0,.52.31.52.48a1.6,1.6,0,0,0,1.52,1.81c.2,0,.33.41.49.63-.26.13-.52.36-.78.36A4.49,4.49,0,0,1,49.79,37.25Z"/><path d="M55.07,37.61a1.93,1.93,0,0,1,.66.18,2.74,2.74,0,0,1,.45.6l-.64.42s-.1,0-.14,0a1.6,1.6,0,0,0-1.88.37c-.15.12-.53,0-.8,0,.08-.28.14-.56.24-.83,0-.07.14-.11.22-.17,1.17-.9,1.14-1.25-.06-2.14a.89.89,0,0,1-.31-.77c.17-.42.56-.31.89-.11A2.22,2.22,0,0,1,55.07,37.61Z"/><circle class="cls-1" cx="51.68" cy="58.91" r="1.53" transform="translate(-10.29 106.87) rotate(-86.48)"/><circle class="cls-1" cx="45.46" cy="64.58" r="0.76" transform="translate(-21.79 105.99) rotate(-86.48)"/><circle class="cls-1" cx="56.18" cy="65.9" r="0.76" transform="translate(-9.23 9.15) rotate(-8.6)"/><circle class="cls-1" cx="45.03" cy="56.59" r="0.38" transform="translate(-7.96 7.37) rotate(-8.6)"/><rect class="cls-4" x="28.16" y="66.59" width="45.56" height="18.72" transform="translate(-10.79 8.48) rotate(-8.6)"/><path d="M35,73.71,35.36,76a6.65,6.65,0,0,1,.07,1.75,3.59,3.59,0,0,1,2.41-1.58,2.38,2.38,0,0,1,2.19.57,5.21,5.21,0,0,1,1.07,2.82,4.74,4.74,0,0,1-.33,3A3.38,3.38,0,0,1,38.13,84a15.38,15.38,0,0,1-2,.16A6.94,6.94,0,0,1,34.32,84L32.8,74Zm.78,5.24.54,3.56a6,6,0,0,0,1.5-.09,1.24,1.24,0,0,0,1-.67,3.57,3.57,0,0,0,0-1.8,3.62,3.62,0,0,0-.5-1.6,1.14,1.14,0,0,0-1.12-.26A3.06,3.06,0,0,0,35.79,78.95Z"/><path d="M47.3,74.77l.09,2.07-.59.09a8.1,8.1,0,0,0-2.16.85l.76,5-2.19.33-1.11-7.31,1.71-.26.36,1a4.66,4.66,0,0,1,2.77-1.73Z"/><path d="M48.79,76.42,48.36,75A21.67,21.67,0,0,1,52.12,74a3.33,3.33,0,0,1,2.27.27,2.67,2.67,0,0,1,1,2l.74,4.83-1.74.26L54,80.3a3.45,3.45,0,0,1-2.5,1.7,2.63,2.63,0,0,1-1.81-.29,1.93,1.93,0,0,1-.9-1.45l-.11-.74a1.69,1.69,0,0,1,.39-1.46,2.55,2.55,0,0,1,1.57-.74l2.61-.4,0-.33a1,1,0,0,0-.37-.72,1.63,1.63,0,0,0-1,0Q50.64,76,48.79,76.42Zm2.08,2.93,0,.28q.12.76,1,.62a3.06,3.06,0,0,0,1.72-1l-.16-1-2,.3A.64.64,0,0,0,50.88,79.35Z"/><path d="M56.92,70.21l1-.15a.57.57,0,0,1,.74.54l.12.8a.57.57,0,0,1-.54.74l-1,.15a.57.57,0,0,1-.73-.54l-.12-.8A.57.57,0,0,1,56.92,70.21Zm3.19,10.3-2.18.33-1.11-7.31L59,73.2Z"/><path d="M62.63,72.64,63,73.7a5,5,0,0,1,2.93-1.77,2.1,2.1,0,0,1,1.6.29,2.06,2.06,0,0,1,.76,1.43l.84,5.49-2.18.33-.73-4.81a1.09,1.09,0,0,0-.26-.65.7.7,0,0,0-.58-.1,5.19,5.19,0,0,0-1.93,1l.76,5L62,80.23l-1.11-7.31Z"/></svg>