<svg id="Ebene_1" data-name="Ebene 1" xmlns="http://www.w3.org/2000/svg" viewBox="0 0 341.8 281.22"><title>foto</title><path d="M249.53,42.82c-.37-4.76-.23-9.2-.93-13.36-.13-.77-.28-1.53-.48-2.28-.25-.94-.52-1.86-.83-2.76l-.1-.31,0-.06A34.57,34.57,0,0,0,236.41,8.37C230,3.18,221.63.3,211.77.18c-26.5-.31-53-.07-79.5-.07-22.59,0-38,16.76-37.75,36.24a36.78,36.78,0,0,0,.27,3.93v0h0a18.18,18.18,0,0,1-.2,2.94H1v238h341.8V43.06H249.54C249.53,43,249.53,42.9,249.53,42.82ZM46.63,105.27h-.18A18.57,18.57,0,0,1,27.87,86.71h0c0-.6,0-1.2.09-1.79,0,0,0-.06,0-.09a18.57,18.57,0,1,1,18.67,20.46ZM171.85,247.63a84.21,84.21,0,0,1-12.94-1c-40.66-6.33-72.31-42-72.14-84.42q0-.12,0-.24A85.09,85.09,0,0,1,172,77a83,83,0,0,1,27.28,4.43,85.79,85.79,0,0,1,57.83,80.95C257.15,209.13,218.57,247.67,171.85,247.63ZM233.74,162c.4,33.52-27.49,61.74-61.32,62a62.16,62.16,0,0,1-54.49-32l-.13-.22c-.36-.65-.69-1.3-1-2-.12-.24-.25-.47-.37-.71-.27-.56-.52-1.13-.78-1.69-.16-.35-.33-.69-.48-1-.23-.53-.43-1.07-.65-1.61s-.33-.79-.48-1.2c-.22-.59-.42-1.19-.62-1.79-.12-.36-.26-.71-.37-1.07-.24-.76-.46-1.54-.67-2.31-.06-.2-.12-.4-.18-.61a60.45,60.45,0,0,1-2-15.38c0-33.81,27.67-61.67,61.58-61.9h0C205.45,100.3,233.32,127.93,233.74,162Z" transform="translate(-0.96 -0.02)"/></svg>