<svg id="Ebene_1" data-name="Ebene 1" xmlns="http://www.w3.org/2000/svg" viewBox="0 0 100 100"><defs><style>.cls-1,.cls-4{fill:#fff;}.cls-2{fill:#95c01f;}.cls-3{fill:none;}.cls-3,.cls-4{stroke:#000;stroke-miterlimit:10;stroke-width:2px;}</style></defs><title>drinks5</title><polygon class="cls-1" points="29.66 23.64 37.22 70.95 61.64 70.95 69.25 23.64 29.66 23.64"/><path class="cls-2" d="M33.76,49.91s.42,4.66,5.46,2.21,5.06-.54,10.25,2.33c2.46,1.36,14.94-4.55,14.94-4.55l-.67,4.16L61,71H36.6Z"/><polygon class="cls-3" points="29.05 23.64 36.6 70.95 61.03 70.95 68.64 23.64 29.05 23.64"/><line class="cls-3" x1="33.07" y1="7.44" x2="41.09" y2="61.1"/><circle class="cls-1" cx="51.68" cy="58.91" r="1.53" transform="translate(-10.29 106.87) rotate(-86.48)"/><circle class="cls-1" cx="45.46" cy="64.58" r="0.76" transform="translate(-21.79 105.99) rotate(-86.48)"/><circle class="cls-1" cx="56.18" cy="65.9" r="0.76" transform="translate(-9.23 9.15) rotate(-8.6)"/><circle class="cls-1" cx="45.03" cy="56.59" r="0.38" transform="translate(-7.96 7.37) rotate(-8.6)"/><path class="cls-1" d="M58.28,36.61a9.46,9.46,0,0,0-4-7.88A9.44,9.44,0,0,0,39.4,36.22a21.53,21.53,0,0,0,.84,6.17A17.05,17.05,0,0,0,42,46.57a9.87,9.87,0,0,0,2.76,3.11A7,7,0,0,0,50,50.9a7.24,7.24,0,0,0,4.15-2.24,12.15,12.15,0,0,0,2.44-3.79A22.45,22.45,0,0,0,58.28,36.61Z"/><path d="M58.28,36.61a22.45,22.45,0,0,1-1.72,8.27,12.15,12.15,0,0,1-2.44,3.79A7.24,7.24,0,0,1,50,50.9a7,7,0,0,1-5.25-1.23A9.87,9.87,0,0,1,42,46.57a17.05,17.05,0,0,1-1.72-4.18,21.53,21.53,0,0,1-.84-6.17,9.43,9.43,0,0,1,14.92-7.49,9.46,9.46,0,0,1,4,7.88Zm-1.71-.37a43.46,43.46,0,0,0-15.46,0c0,.07,0,.11,0,.16a21,21,0,0,0,.35,3.56c0,.09.07.11.14.12a41.71,41.71,0,0,0,6.4.61,42.12,42.12,0,0,0,8-.61c.11,0,.16-.06.17-.17.1-.82.22-1.64.31-2.46C56.57,37.05,56.56,36.65,56.57,36.24Zm-2.7,10-.14,0A24.73,24.73,0,0,1,50.49,45a23.24,23.24,0,0,1-4.61-2.68.34.34,0,0,0-.17-.06l-2.38-.21L42.74,42l0,0,.13.09a18.56,18.56,0,0,0,2.54,2,27.78,27.78,0,0,0,5.91,3c.44.16.89.31,1.33.45a.17.17,0,0,0,.14,0A7.73,7.73,0,0,0,53.88,46.28Zm-10.1-15.7.11,0c1.27.16,2.53.36,3.78.63a.24.24,0,0,0,.17,0,15.17,15.17,0,0,1,3.72-1.89l.15-.06a7.6,7.6,0,0,0-3.81-.5A7.69,7.69,0,0,0,43.78,30.57Zm-1,13.84a.1.1,0,0,0,0,0l0,.09a9.82,9.82,0,0,0,2.11,3.14,5.4,5.4,0,0,0,5.2,1.44c.26-.06.51-.16.77-.24v0A28.52,28.52,0,0,1,42.81,44.41Zm-1.43-9.94a45.83,45.83,0,0,1,9.25-.64c-.28-.1-.56-.19-.84-.27a40.24,40.24,0,0,0-7.27-1.39.17.17,0,0,0-.18.09A7.6,7.6,0,0,0,41.51,34ZM54.74,44.74a17,17,0,0,0,1-2.87,46.25,46.25,0,0,1-6.62.55A22.1,22.1,0,0,0,54.74,44.74Zm1.43-10.69a.45.45,0,0,0,0-.06l0-.1a7.68,7.68,0,0,0-2.26-3.35.22.22,0,0,0-.22-.05,14.31,14.31,0,0,0-3.42,1.22l-.23.12A48.11,48.11,0,0,1,56.17,34.06Z"/><path d="M42.84,37.28l4.28,1.25a1.35,1.35,0,0,1-.28.58,1.88,1.88,0,0,1-2.36.52,2.83,2.83,0,0,1-1.63-2.2.72.72,0,0,1,0-.11A.27.27,0,0,1,42.84,37.28Z"/><path d="M54.88,37.27a5.41,5.41,0,0,1-.16.66,2.75,2.75,0,0,1-1.88,1.83,1.83,1.83,0,0,1-2.15-.89,3.57,3.57,0,0,1-.14-.33Z"/><rect class="cls-4" x="10.11" y="66.7" width="77.95" height="18.72" transform="translate(-10.83 8.2) rotate(-8.6)"/><path d="M20.09,76l.35,1.17a4.72,4.72,0,0,1,2.9-1.91,2,2,0,0,1,2.31,1,4.46,4.46,0,0,1,2.78-1.79,2.06,2.06,0,0,1,2.63,1.92l1,6.14-2.44.38-.83-5.38a1.19,1.19,0,0,0-.3-.72.87.87,0,0,0-.71-.11A2,2,0,0,0,27,77a8.17,8.17,0,0,0-1,.75l.87,5.61-2.36.36-.83-5.38a1.08,1.08,0,0,0-.32-.71.91.91,0,0,0-.71-.11,4,4,0,0,0-1.7,1l.87,5.63-2.44.38-1.27-8.19Z"/><path d="M40.49,72.85,41.75,81l-1.94.3-.36-1.1a5.51,5.51,0,0,1-3.18,1.87,2,2,0,0,1-2.66-1.92l-.95-6.13,2.46-.38L36,79.06a1.06,1.06,0,0,0,.3.72.93.93,0,0,0,.73.11,5.07,5.07,0,0,0,1.94-1L38,73.23Z"/><path d="M44.47,72.23l.35,1.17a4.72,4.72,0,0,1,2.9-1.91,2,2,0,0,1,2.31,1,4.46,4.46,0,0,1,2.78-1.79,2.06,2.06,0,0,1,2.63,1.92l1,6.14L54,79.15l-.83-5.38a1.19,1.19,0,0,0-.3-.72.87.87,0,0,0-.71-.11,2,2,0,0,0-.74.27,8.17,8.17,0,0,0-1,.75l.87,5.61-2.36.36-.83-5.38a1.08,1.08,0,0,0-.32-.71.91.91,0,0,0-.71-.11,4,4,0,0,0-1.7,1l.87,5.63-2.44.38-1.27-8.19Z"/><path d="M59.05,70l.35,1.17a4.72,4.72,0,0,1,2.9-1.91,2,2,0,0,1,2.31,1,4.46,4.46,0,0,1,2.78-1.79A2.06,2.06,0,0,1,70,70.37l1,6.14-2.44.38-.83-5.38a1.19,1.19,0,0,0-.3-.72.87.87,0,0,0-.71-.11A2,2,0,0,0,66,71a8.17,8.17,0,0,0-1,.75l.87,5.61-2.36.36-.83-5.38a1.08,1.08,0,0,0-.32-.71.91.91,0,0,0-.71-.11,4,4,0,0,0-1.7,1l.87,5.63-2.44.38-1.27-8.19Z"/><path d="M79.86,66.76l-1.62,8.75a6.65,6.65,0,0,1-.38,1.32,5.64,5.64,0,0,1-.7,1.22A3.28,3.28,0,0,1,76,79a4.19,4.19,0,0,1-1.73.4L73.8,78a4.64,4.64,0,0,0,1.45-.93,2.84,2.84,0,0,0,.7-1.27l0-.07-.46.07a.77.77,0,0,1-.89-.47l-3.85-7.18,2.62-.41,2.35,5.06q.24.56.44,1.19l.22,0q0-.21.07-.65l.07-.63.69-5.53Z"/></svg>