<svg id="Ebene_1" data-name="Ebene 1" xmlns="http://www.w3.org/2000/svg" viewBox="0 0 100 100"><defs><style>.cls-1,.cls-4{fill:#fff;}.cls-2{fill:#ffc245;}.cls-3{fill:none;}.cls-3,.cls-4{stroke:#000;stroke-miterlimit:10;stroke-width:2px;}</style></defs><title>drinks5</title><polygon class="cls-1" points="28.87 20.22 48.33 44.62 67.43 20.22 28.87 20.22"/><path class="cls-2" d="M34,24.62s.42,5,5.46,2.38,5.06-.58,10.25,2.51c2.46,1.47,12.79-3.85,12.79-3.85l-2.13,2.38-5.24,7.21-6.8,9.36Z"/><polygon class="cls-3" points="28.87 20.22 48.33 44.62 67.43 20.22 28.87 20.22"/><line class="cls-3" x1="48.33" y1="44.62" x2="48.33" y2="72.8"/><line class="cls-3" x1="64.68" y1="7.53" x2="52.42" y2="32.9"/><rect class="cls-4" x="23.15" y="62.72" width="54.5" height="25.18" transform="translate(-10.7 8.39) rotate(-8.6)"/><path d="M35.25,69.94l.25.83A4,4,0,0,1,37.8,69.4a1.64,1.64,0,0,1,1.25.23,1.61,1.61,0,0,1,.59,1.12L40.28,75l-1.7.26L38,71.53a.85.85,0,0,0-.2-.51.55.55,0,0,0-.46-.08,4.05,4.05,0,0,0-1.51.76l.59,3.91-1.72.26-.86-5.71Z"/><path d="M43.48,68.54a3.1,3.1,0,0,1,2.37.35,3.35,3.35,0,0,1,1,2.24,3.3,3.3,0,0,1-.32,2.42,3.14,3.14,0,0,1-2.16,1A3.16,3.16,0,0,1,42,74.23,3.3,3.3,0,0,1,41,72a3.34,3.34,0,0,1,.31-2.44A3.14,3.14,0,0,1,43.48,68.54Zm.19,1.29a1,1,0,0,0-.86.49,2.83,2.83,0,0,0,0,1.43,2.76,2.76,0,0,0,.44,1.33,1,1,0,0,0,1,.21A1,1,0,0,0,45,72.8a2.7,2.7,0,0,0,0-1.4A2.83,2.83,0,0,0,44.63,70,1,1,0,0,0,43.67,69.83Z"/><path d="M51.45,66.1l-1.08.16a.87.87,0,0,0-.57.25.8.8,0,0,0-.08.6l.1.64,1.58-.24.17,1.15L50,68.9l.69,4.57L49,73.73l-.69-4.57-1,.15-.16-1.09,1-.21L48,67.14q-.27-1.76,1.61-2a11.28,11.28,0,0,1,1.87-.16Z"/><path d="M57.69,66.57l.86,5.71-1.36.2-.25-.77A3.84,3.84,0,0,1,54.72,73a1.43,1.43,0,0,1-1.85-1.35l-.64-4.28,1.72-.26.57,3.76a.74.74,0,0,0,.21.5.65.65,0,0,0,.51.08,3.54,3.54,0,0,0,1.35-.69l-.59-4Z"/><path d="M60.49,66.15l.25.83A4,4,0,0,1,63,65.6a1.64,1.64,0,0,1,1.25.23,1.61,1.61,0,0,1,.59,1.12l.65,4.29-1.7.26-.57-3.76a.85.85,0,0,0-.2-.51.55.55,0,0,0-.46-.08,4.05,4.05,0,0,0-1.51.76l.59,3.91L60,72.07l-.86-5.71Z"/><path d="M35.35,85.05l.32,1.09a5.64,5.64,0,0,1-2.16.72,3,3,0,0,1-2.32-.34,4.57,4.57,0,0,1-.7-4.66,3.05,3.05,0,0,1,2.13-1,5.31,5.31,0,0,1,2.16,0l0,1.09-1.64.22a1.42,1.42,0,0,0-1,.5,2.93,2.93,0,0,0,.38,2.55,1.42,1.42,0,0,0,1.13.17A12.88,12.88,0,0,0,35.35,85.05Z"/><path d="M38.49,80a3.1,3.1,0,0,1,2.37.35,3.35,3.35,0,0,1,1,2.24A3.3,3.3,0,0,1,41.56,85a3.14,3.14,0,0,1-2.16,1A3.16,3.16,0,0,1,37,85.65a3.3,3.3,0,0,1-1-2.22A3.34,3.34,0,0,1,36.31,81,3.14,3.14,0,0,1,38.49,80Zm.19,1.29a1,1,0,0,0-.86.49,2.83,2.83,0,0,0,0,1.43,2.76,2.76,0,0,0,.44,1.33,1,1,0,0,0,1,.21,1,1,0,0,0,.85-.48,2.7,2.7,0,0,0,0-1.4,2.83,2.83,0,0,0-.44-1.35A1,1,0,0,0,38.68,81.24Z"/><path d="M48,83.16l.32,1.09a5.64,5.64,0,0,1-2.16.72,3,3,0,0,1-2.32-.34A4.57,4.57,0,0,1,43.1,80a3.05,3.05,0,0,1,2.13-1,5.31,5.31,0,0,1,2.16,0l0,1.09-1.64.22a1.42,1.42,0,0,0-1,.5,2.93,2.93,0,0,0,.38,2.55,1.42,1.42,0,0,0,1.13.17A12.88,12.88,0,0,0,48,83.16Z"/><path d="M51.13,81.35l-.54.08a5.9,5.9,0,0,1,.21.85l.27,1.8-1.72.26-1.22-8.11L49.84,76l.5,3.35a6.32,6.32,0,0,1,.08,1.06l.53-.08,1.11-2.21L54,77.79,52.81,80a1.73,1.73,0,0,1-.45.63v0a1.88,1.88,0,0,1,.63.53l2.06,2.3-1.92.29Z"/><path d="M57.34,78.46l.41,2.7a.6.6,0,0,0,.21.43.73.73,0,0,0,.51.05l.73-.11.36,1.17a5,5,0,0,1-1.58.47,1.63,1.63,0,0,1-1.27-.25,1.67,1.67,0,0,1-.61-1.15l-.46-3.06-1,.15-.16-1.09,1-.21L55.23,76l1.7-.26.24,1.6,1.59-.24.17,1.15Z"/><path d="M60.05,78.18,59.71,77a16.93,16.93,0,0,1,2.94-.73,2.6,2.6,0,0,1,1.77.21,2.09,2.09,0,0,1,.79,1.55l.57,3.78-1.36.2-.3-.84a2.7,2.7,0,0,1-2,1.33,2.05,2.05,0,0,1-1.41-.23,1.51,1.51,0,0,1-.7-1.13L60,80.6a1.32,1.32,0,0,1,.3-1.14,2,2,0,0,1,1.23-.58l2-.31,0-.26a.76.76,0,0,0-.29-.56,1.28,1.28,0,0,0-.76,0Q61.5,77.87,60.05,78.18Zm1.62,2.29,0,.22q.09.59.76.49a2.39,2.39,0,0,0,1.34-.77l-.12-.8-1.54.23A.5.5,0,0,0,61.68,80.47Z"/><path d="M66.41,73.34l.77-.12a.45.45,0,0,1,.57.42l.09.63a.45.45,0,0,1-.42.57l-.77.12a.45.45,0,0,1-.57-.42L66,73.91A.44.44,0,0,1,66.41,73.34Zm2.48,8.05-1.7.26-.86-5.71,1.7-.26Z"/><path d="M70.83,72.8,71.77,79q.09.58.74.48l.46-.07.38,1.16a3.1,3.1,0,0,1-1.33.44,1.72,1.72,0,0,1-1.27-.23,1.53,1.53,0,0,1-.62-1.1l-1-6.68Z"/></svg>