<svg id="Ebene_1" data-name="Ebene 1" xmlns="http://www.w3.org/2000/svg" viewBox="0 0 57.95 56.63"><defs><style>.cls-1{fill:#b3b3b3;}.cls-2{fill:#fff;}</style></defs><title>shot</title><path class="cls-1" d="M44.65,37.55s.35-5.31,6-4.25,5.16,2.69,9.48,2.05L58.8,55.6h-17L40.4,39.85S43.94,40,44.65,37.55Z" transform="translate(-22.05 -22.69)"/><path d="M60.07,57H40.52L37.44,22.69H63.93Zm-17-2.83H57.54l3.22-28.67H40.53Z" transform="translate(-22.05 -22.69)"/><rect class="cls-2" x="24.68" y="50.06" width="52.7" height="24.35" transform="translate(-30.79 -14.36) rotate(-8.6)"/><path d="M26,79.31l-3.93-26,54-8.17,3.93,26ZM24.26,55l3.35,22.16L77.8,69.52,74.45,47.36Z" transform="translate(-22.05 -22.69)"/><path d="M36.15,66.91l-2.53-.31a3.54,3.54,0,0,1-2-.82A3.12,3.12,0,0,1,30.81,64a2.44,2.44,0,0,1,.63-2.3,6.1,6.1,0,0,1,3.13-1.09,28.81,28.81,0,0,1,4.57-.26l.07,1.91-3.77.49-1,.15A3.26,3.26,0,0,0,34,63c-.17.07-.27.14-.3.23a1,1,0,0,0,0,.4,1.47,1.47,0,0,0,0,.18.37.37,0,0,0,.07.14l.08.1a.37.37,0,0,0,.12.07l.14.05.19,0,.21,0,.27,0,.3,0,2.59.32a4,4,0,0,1,2,.74,2.74,2.74,0,0,1,.82,1.78,2.59,2.59,0,0,1-.68,2.51,7.07,7.07,0,0,1-3.38,1.12,26.79,26.79,0,0,1-4.43.28l-.09-1.93q.72-.06,3.4-.44a9.45,9.45,0,0,0,2-.41.58.58,0,0,0,.38-.67,1.51,1.51,0,0,0,0-.18.44.44,0,0,0-.07-.14l-.09-.1-.14-.07-.15-.06L37,67l-.23,0-.29,0Z" transform="translate(-22.05 -22.69)"/><path d="M43.75,55.38l.48,3.39a12,12,0,0,1,.11,2.07,6.59,6.59,0,0,1,3.78-2.17,2.8,2.8,0,0,1,2.13.41,2.75,2.75,0,0,1,1,1.92l1,7.34-2.92.41-.91-6.42a1.45,1.45,0,0,0-.34-.87.93.93,0,0,0-.78-.14,6.23,6.23,0,0,0-2.59,1.28l.95,6.68-2.93.42-2-13.88Z" transform="translate(-22.05 -22.69)"/><path d="M57.84,57.29a5.3,5.3,0,0,1,4,.63,5.72,5.72,0,0,1,1.71,3.83q.4,2.81-.58,4.14A5.36,5.36,0,0,1,59.3,67.6Q56.54,68,55.24,67t-1.7-3.81q-.4-2.83.57-4.17T57.84,57.29Zm.31,2.2a1.78,1.78,0,0,0-1.48.82,4.82,4.82,0,0,0-.06,2.43A4.71,4.71,0,0,0,57.34,65,1.78,1.78,0,0,0,59,65.4a1.75,1.75,0,0,0,1.45-.81,4.61,4.61,0,0,0,.08-2.4,4.83,4.83,0,0,0-.73-2.31A1.74,1.74,0,0,0,58.15,59.49Z" transform="translate(-22.05 -22.69)"/><path d="M68.94,58l.65,4.62a1,1,0,0,0,.35.74,1.25,1.25,0,0,0,.86.1l1.25-.18.61,2a8.5,8.5,0,0,1-2.7.79,2.79,2.79,0,0,1-2.17-.45,2.85,2.85,0,0,1-1-2L66,58.41l-1.73.24L64,56.79l1.71-.34-.39-2.74,2.91-.41L68.66,56l2.72-.38.28,2Z" transform="translate(-22.05 -22.69)"/></svg>