<svg id="Ebene_1" data-name="Ebene 1" xmlns="http://www.w3.org/2000/svg" viewBox="0 0 100 100"><defs><style>.cls-1,.cls-5{fill:#fff;}.cls-2{fill:#f9001f;}.cls-3{fill:none;}.cls-3,.cls-4,.cls-5{stroke:#000;stroke-miterlimit:10;}.cls-3,.cls-5{stroke-width:2px;}.cls-4{stroke-width:0.5px;}</style></defs><title>drinks</title><polygon class="cls-1" points="29.05 25.64 36.6 72.95 61.03 72.95 68.64 25.64 29.05 25.64"/><path class="cls-2" d="M33.76,51.91s.42,4.66,5.46,2.21,5.06-.54,10.25,2.33c2.46,1.36,14.94-4.55,14.94-4.55l-.67,4.16L61,73H36.6Z"/><polygon class="cls-3" points="29.05 25.64 36.6 72.95 61.03 72.95 68.64 25.64 29.05 25.64"/><line class="cls-3" x1="32.07" y1="9.44" x2="40.09" y2="63.1"/><circle class="cls-1" cx="51.68" cy="60.91" r="1.53" transform="translate(-12.29 108.75) rotate(-86.48)"/><circle class="cls-1" cx="45.46" cy="66.58" r="0.76" transform="translate(-23.78 107.86) rotate(-86.48)"/><circle class="cls-1" cx="56.18" cy="67.9" r="0.76" transform="translate(-9.52 9.17) rotate(-8.6)"/><circle class="cls-1" cx="45.03" cy="58.59" r="0.38" transform="translate(-8.26 7.4) rotate(-8.6)"/><path class="cls-4" d="M58.32,42.17l.37-.06a.94.94,0,0,1,1.06.62,3,3,0,0,1,.2,1.3A10.76,10.76,0,0,1,58.6,49a4.54,4.54,0,0,1-1.16,1.4,2.68,2.68,0,0,1-.78.43.2.2,0,0,0-.12.12,8.73,8.73,0,0,1-4,5.58,10.57,10.57,0,0,1-2.36,1.12,3.36,3.36,0,0,1-2.19,0,9.82,9.82,0,0,1-5.36-4A8.1,8.1,0,0,1,41.46,51a.2.2,0,0,0-.15-.17,2.82,2.82,0,0,1-1.26-.89,7,7,0,0,1-1.21-2.1A10.72,10.72,0,0,1,38,44.22a8.9,8.9,0,0,1,.09-1.17,1,1,0,0,1,.1-.3,1,1,0,0,1,1.14-.62l.31.05c0-.06,0-.11,0-.16,0-.68,0-1.36.06-2a7.38,7.38,0,0,1,4.07-6,10.12,10.12,0,0,1,3.9-1.09,12.83,12.83,0,0,1,4.51.34,8.23,8.23,0,0,1,4.32,2.64,7.53,7.53,0,0,1,1.65,3.72A15.48,15.48,0,0,1,58.31,42s0,.1,0,.15ZM55.6,46.39h0s0-.1,0-.14c0-.5,0-1,0-1.51a10.81,10.81,0,0,0-.45-3.06,4.32,4.32,0,0,0-.84-1.61,1.84,1.84,0,0,0-1.1-.65,2.52,2.52,0,0,0-2,.54,4.38,4.38,0,0,0-1.33,1.85c-.29.71-.53,1.45-.78,2.17l-.06.16-.61-1.66a7.06,7.06,0,0,0-.89-1.76A3.08,3.08,0,0,0,46,39.53a2,2,0,0,0-2.55.8,4.4,4.4,0,0,0-.39.7,8.86,8.86,0,0,0-.69,3.16c0,.69,0,1.38,0,2.07,0,0,0,.09,0,.16l-.08-.08c-.37-.46-.74-.93-1.12-1.38s-.68-.73-1-1.09c-.12-.13-.25-.24-.36-.37a.7.7,0,0,0-.32-.23c-.22-.08-.24-.07-.29.16a.61.61,0,0,0,0,.13c0,.44,0,.87,0,1.31a9.8,9.8,0,0,0,.91,3.23,4.12,4.12,0,0,0,1,1.39,1.17,1.17,0,0,0,.68.31.55.55,0,0,1,.6.54,7,7,0,0,0,1,2.68,8.94,8.94,0,0,0,4.75,3.59,2.28,2.28,0,0,0,1.53,0,9.6,9.6,0,0,0,2.44-1.23,8.12,8.12,0,0,0,2.81-3.26,7.1,7.1,0,0,0,.55-1.78.58.58,0,0,1,.54-.52,1.19,1.19,0,0,0,.66-.23,2.76,2.76,0,0,0,.66-.71,7.54,7.54,0,0,0,.91-2,10,10,0,0,0,.53-2.75,6.58,6.58,0,0,0-.06-.82c0-.09-.06-.11-.15-.09a.92.92,0,0,0-.37.22,9.08,9.08,0,0,0-1.45,1.47l-.58.74Zm-14.27-3v-.1A10.54,10.54,0,0,1,41.88,41a5.1,5.1,0,0,1,1.17-1.94,2.75,2.75,0,0,1,2-.82,3.79,3.79,0,0,1,2.78,1.24,6.14,6.14,0,0,1,1,1.44H49c.19-.29.36-.6.57-.88A4.17,4.17,0,0,1,51.9,38.4a2.93,2.93,0,0,1,2.53.37,3.89,3.89,0,0,1,1.21,1.46A9,9,0,0,1,56.49,43c0,.16,0,.31.07.45l.58-.54a.13.13,0,0,0,0-.08c0-.93,0-1.86-.06-2.78a6.13,6.13,0,0,0-3.59-5.17,9.58,9.58,0,0,0-3.5-.92,11.65,11.65,0,0,0-4.24.38,7.47,7.47,0,0,0-2.9,1.52,6.16,6.16,0,0,0-2.11,4.35c-.06.83,0,1.68,0,2.51a.15.15,0,0,0,0,.1Z"/><path class="cls-4" d="M51.18,54.15a5,5,0,0,1-.95-1.29l-.51.12a3.65,3.65,0,0,1-1.84-.09.14.14,0,0,0-.2.08,5.92,5.92,0,0,1-.88,1.18c0-.07,0-.11,0-.15,0-.46,0-.93,0-1.39a.17.17,0,0,0-.11-.18,8.19,8.19,0,0,1-1.39-.89.3.3,0,0,1-.08-.09,14.16,14.16,0,0,0,7.56,0l-.09.08a8.2,8.2,0,0,1-1.39.89.16.16,0,0,0-.11.17c0,.46,0,.93,0,1.39C51.19,54,51.18,54.08,51.18,54.15Z"/><path class="cls-4" d="M54.5,46a4.15,4.15,0,0,1-.18.56,4.49,4.49,0,0,1-1.79,1.93,1.67,1.67,0,0,1-2.41-1.23c-.05-.32-.05-.32.26-.39l4-.89.13,0Z"/><path class="cls-4" d="M43.49,45.94l1,.22,3.3.74c.12,0,.14.08.13.19a1.74,1.74,0,0,1-1.7,1.6,1.32,1.32,0,0,1-.66-.18A4.47,4.47,0,0,1,44,47.1a4.9,4.9,0,0,1-.4-.72A2.46,2.46,0,0,1,43.49,45.94Z"/><rect class="cls-5" x="15.19" y="67.69" width="70.92" height="20" transform="translate(-11.05 8.45) rotate(-8.6)"/><path d="M26.75,76.94l-1.57,8a.79.79,0,0,1-.71.7L22.33,86a.79.79,0,0,1-.89-.47L17.6,78.29l2.62-.39,2.25,4.94q.29.66.57,1.42l.22,0,.17-1.53.72-5.38Z"/><path d="M28.26,78.59,27.78,77a24.38,24.38,0,0,1,4.23-1,3.75,3.75,0,0,1,2.55.31,3,3,0,0,1,1.13,2.23l.8,5.44-2,.29L34.11,83a3.88,3.88,0,0,1-2.82,1.9,3,3,0,0,1-2-.34,2.17,2.17,0,0,1-1-1.63l-.12-.83a1.9,1.9,0,0,1,.44-1.64,2.86,2.86,0,0,1,1.77-.82l2.94-.43-.05-.37a1.1,1.1,0,0,0-.42-.81,1.84,1.84,0,0,0-1.09-.06Q30.34,78.15,28.26,78.59Zm2.33,3.31,0,.32q.13.85,1.09.71a3.44,3.44,0,0,0,1.94-1.11l-.17-1.15L31.28,81A.72.72,0,0,0,30.59,81.9Z"/><path d="M39.21,75.1l.34,1.18a4.74,4.74,0,0,1,2.93-1.9,2,2,0,0,1,2.32,1,4.48,4.48,0,0,1,2.81-1.78,2.07,2.07,0,0,1,2.63,1.95l.91,6.18-2.45.36-.8-5.41a1.19,1.19,0,0,0-.3-.72.88.88,0,0,0-.72-.12,2,2,0,0,0-.75.26,8.21,8.21,0,0,0-1,.74L46,82.51l-2.37.35-.8-5.41a1.09,1.09,0,0,0-.32-.72.92.92,0,0,0-.71-.12,4,4,0,0,0-1.71,1l.84,5.66-2.45.36-1.22-8.23Z"/><path d="M53.9,72.92l.36,1.18a3.88,3.88,0,0,1,1.28-1.23,4.58,4.58,0,0,1,1.79-.67q2.84-.42,3.49,4a5.48,5.48,0,0,1-.27,3.43,2.9,2.9,0,0,1-2.24,1.3,4.56,4.56,0,0,1-2.87-.39,13.3,13.3,0,0,1,.31,1.76l.29,2-2.45.36L51.9,73.22Zm.82,2.44.56,3.77a8.77,8.77,0,0,0,1.92.06,1.27,1.27,0,0,0,1.06-.63,4.08,4.08,0,0,0,0-2,4.6,4.6,0,0,0-.57-1.92,1.06,1.06,0,0,0-1.08-.36A4,4,0,0,0,54.72,75.36Z"/><path d="M62.11,68l1.1-.16a.64.64,0,0,1,.82.61l.13.9a.64.64,0,0,1-.61.82l-1.1.16a.64.64,0,0,1-.82-.61l-.13-.9A.64.64,0,0,1,62.11,68ZM65.65,79.6,63.2,80,62,71.73l2.45-.36Z"/><path d="M72.4,70l.09,2.32-.67.1a9.11,9.11,0,0,0-2.44.94l.83,5.61-2.47.37-1.22-8.23,1.92-.28.4,1.17A5.25,5.25,0,0,1,72,70Z"/><path d="M79.47,74.19l-3,.44a1.72,1.72,0,0,0,.72,1.13,2.49,2.49,0,0,0,1.46.1,30.32,30.32,0,0,0,3-.64l.46,1.5a8.55,8.55,0,0,1-3.5,1.15,4.57,4.57,0,0,1-3.45-.51,4.65,4.65,0,0,1-1.47-3.16,4.81,4.81,0,0,1,.46-3.53,4.49,4.49,0,0,1,3.09-1.45,5,5,0,0,1,3.08.27,2.63,2.63,0,0,1,1.25,2,2.33,2.33,0,0,1-.34,1.82A2.7,2.7,0,0,1,79.47,74.19Zm-3.24-1,2.34-.35a.72.72,0,0,0,.58-.31,1.08,1.08,0,0,0,.06-.66,1,1,0,0,0-.42-.77A2,2,0,0,0,77.66,71a1.78,1.78,0,0,0-1.25.57A2.5,2.5,0,0,0,76.23,73.15Z"/></svg>